<svg width="143" height="173" viewBox="0 0 143 173" fill="none" xmlns="http://www.w3.org/2000/svg">
<mask id="path-1-inside-1_227_496" fill="white">
<path d="M190.211 111.332C184.399 106.786 177.749 103.429 170.639 101.452C163.53 99.4762 156.1 98.9197 148.776 99.8146C141.451 100.709 134.375 103.038 127.95 106.668C121.526 110.298 115.879 115.157 111.332 120.97C106.786 126.782 103.429 133.432 101.452 140.542C99.4763 147.651 98.9197 155.08 99.8146 162.405C100.71 169.729 103.038 176.806 106.668 183.231C110.298 189.655 115.158 195.302 120.97 199.848L130.102 188.174C125.823 184.827 122.245 180.67 119.573 175.94C116.9 171.21 115.186 166 114.527 160.607C113.868 155.215 114.278 149.745 115.733 144.511C117.188 139.277 119.659 134.381 123.006 130.102C126.354 125.823 130.511 122.245 135.241 119.573C139.971 116.9 145.181 115.186 150.573 114.527C155.966 113.868 161.435 114.278 166.67 115.733C171.904 117.188 176.8 119.659 181.079 123.006L190.211 111.332Z"/>
</mask>
<path d="M190.211 111.332C184.399 106.786 177.749 103.429 170.639 101.452C163.53 99.4762 156.1 98.9197 148.776 99.8146C141.451 100.709 134.375 103.038 127.95 106.668C121.526 110.298 115.879 115.157 111.332 120.97C106.786 126.782 103.429 133.432 101.452 140.542C99.4763 147.651 98.9197 155.08 99.8146 162.405C100.71 169.729 103.038 176.806 106.668 183.231C110.298 189.655 115.158 195.302 120.97 199.848L130.102 188.174C125.823 184.827 122.245 180.67 119.573 175.94C116.9 171.21 115.186 166 114.527 160.607C113.868 155.215 114.278 149.745 115.733 144.511C117.188 139.277 119.659 134.381 123.006 130.102C126.354 125.823 130.511 122.245 135.241 119.573C139.971 116.9 145.181 115.186 150.573 114.527C155.966 113.868 161.435 114.278 166.67 115.733C171.904 117.188 176.8 119.659 181.079 123.006L190.211 111.332Z" stroke="#E6C460" stroke-width="64" mask="url(#path-1-inside-1_227_496)"/>
<mask id="path-2-inside-2_227_496" fill="white">
<path d="M213.246 82.6947C203.626 75.1699 192.619 69.6135 180.852 66.3427C169.085 63.0719 156.789 62.1507 144.667 63.6319C132.544 65.113 120.832 68.9674 110.198 74.975C99.5652 80.9825 90.2194 89.0257 82.6946 98.6451C75.1698 108.264 69.6134 119.272 66.3426 131.039C63.0718 142.805 62.1506 155.101 63.6318 167.224C65.1129 179.347 68.9673 191.059 74.9749 201.692C80.9824 212.326 89.0256 221.671 98.645 229.196L113.759 209.874C106.677 204.335 100.756 197.454 96.3328 189.625C91.9099 181.797 89.0722 173.174 87.9817 164.249C86.8913 155.324 87.5694 146.271 89.9775 137.608C92.3855 128.945 96.4763 120.842 102.016 113.759C107.556 106.677 114.437 100.756 122.265 96.3329C130.094 91.91 138.717 89.0723 147.642 87.9818C156.567 86.8914 165.619 87.5695 174.282 89.9776C182.945 92.3856 191.049 96.4764 198.131 102.016L213.246 82.6947Z"/>
</mask>
<path d="M213.246 82.6947C203.626 75.1699 192.619 69.6135 180.852 66.3427C169.085 63.0719 156.789 62.1507 144.667 63.6319C132.544 65.113 120.832 68.9674 110.198 74.975C99.5652 80.9825 90.2194 89.0257 82.6946 98.6451C75.1698 108.264 69.6134 119.272 66.3426 131.039C63.0718 142.805 62.1506 155.101 63.6318 167.224C65.1129 179.347 68.9673 191.059 74.9749 201.692C80.9824 212.326 89.0256 221.671 98.645 229.196L113.759 209.874C106.677 204.335 100.756 197.454 96.3328 189.625C91.9099 181.797 89.0722 173.174 87.9817 164.249C86.8913 155.324 87.5694 146.271 89.9775 137.608C92.3855 128.945 96.4763 120.842 102.016 113.759C107.556 106.677 114.437 100.756 122.265 96.3329C130.094 91.91 138.717 89.0723 147.642 87.9818C156.567 86.8914 165.619 87.5695 174.282 89.9776C182.945 92.3856 191.049 96.4764 198.131 102.016L213.246 82.6947Z" stroke="#F6A863" stroke-width="64" mask="url(#path-2-inside-2_227_496)"/>
<mask id="path-3-inside-3_227_496" fill="white">
<path d="M242.204 45.6755C227.723 34.3478 211.153 25.9833 193.439 21.0595C175.726 16.1358 157.216 14.7491 138.967 16.9788C120.717 19.2084 103.086 25.0107 87.0789 34.0544C71.072 43.0981 57.003 55.206 45.6754 69.6868C34.3478 84.1677 25.9833 100.738 21.0595 118.451C16.1357 136.165 14.749 154.675 16.9787 172.924C19.2084 191.173 25.0107 208.805 34.0543 224.812C43.098 240.819 55.2059 254.888 69.6868 266.215L92.4396 237.129C81.7784 228.789 72.8642 218.431 66.2061 206.647C59.5479 194.862 55.2761 181.881 53.6345 168.445C51.993 155.01 53.0139 141.382 56.6389 128.341C60.2639 115.3 66.4221 103.101 74.7618 92.4396C83.1015 81.7785 93.4594 72.8643 105.244 66.2061C117.029 59.548 130.01 55.2761 143.445 53.6346C156.881 51.9931 170.508 53.014 183.549 56.639C196.591 60.264 208.79 66.4222 219.451 74.7619L242.204 45.6755Z"/>
</mask>
<path d="M242.204 45.6755C227.723 34.3478 211.153 25.9833 193.439 21.0595C175.726 16.1358 157.216 14.7491 138.967 16.9788C120.717 19.2084 103.086 25.0107 87.0789 34.0544C71.072 43.0981 57.003 55.206 45.6754 69.6868C34.3478 84.1677 25.9833 100.738 21.0595 118.451C16.1357 136.165 14.749 154.675 16.9787 172.924C19.2084 191.173 25.0107 208.805 34.0543 224.812C43.098 240.819 55.2059 254.888 69.6868 266.215L92.4396 237.129C81.7784 228.789 72.8642 218.431 66.2061 206.647C59.5479 194.862 55.2761 181.881 53.6345 168.445C51.993 155.01 53.0139 141.382 56.6389 128.341C60.2639 115.3 66.4221 103.101 74.7618 92.4396C83.1015 81.7785 93.4594 72.8643 105.244 66.2061C117.029 59.548 130.01 55.2761 143.445 53.6346C156.881 51.9931 170.508 53.014 183.549 56.639C196.591 60.264 208.79 66.4222 219.451 74.7619L242.204 45.6755Z" stroke="#78D160" stroke-width="64" mask="url(#path-3-inside-3_227_496)"/>
</svg>
